<svg xmlns="http://www.w3.org/2000/svg" viewBox="0 0 1000 1000">
  <path fill="#fff" d="M4 4h992v992H4z"/>
  <path fill="#de39c8" d="M992 8v984H8V8zm8-8H0v1000h1000z"/>
  <path fill="none" stroke="#000" stroke-linejoin="round" stroke-width="8" d="M0 500h302.95m-2.94 3.65c-4.82-44.28 26.16-77.93 49.09-78.39 23.15-.47 53.8 31.14 49.96 76.17-3.6-42.92 22.79-74.69 45.16-76.17 23.67-1.57 56.47 29.88 54.02 76.94-4.16-43.36 22.97-75.55 45.81-76.94 23.95-1.45 56.76 30.15 54.02 76.94-4.42-44.55 24.85-76.94 47.77-76.94 25.27 0 52.36 32.57 50.34 78.25M699 500h300.31"/>
</svg>
