<svg xmlns="http://www.w3.org/2000/svg" id="a" viewBox="0 0 1000 1000">
  <defs>
    <linearGradient id="b" x1="299.67" x2="700.32" y1="574.75" y2="574.75" gradientUnits="userSpaceOnUse">
      <stop offset="0" stop-color="#343445"/>
      <stop offset=".07" stop-color="#4c4c62"/>
      <stop offset=".22" stop-color="#7f80a1"/>
      <stop offset=".35" stop-color="#a4a6ce"/>
      <stop offset=".45" stop-color="#bbbdea"/>
      <stop offset=".51" stop-color="#c4c6f5"/>
      <stop offset=".58" stop-color="#a2a3cb"/>
      <stop offset=".68" stop-color="#7f80a2"/>
      <stop offset=".77" stop-color="#646581"/>
      <stop offset=".85" stop-color="#51516a"/>
      <stop offset=".93" stop-color="#46465b"/>
      <stop offset="1" stop-color="#424257"/>
    </linearGradient>
    <style>
      .c{fill:none;stroke:#000;stroke-linejoin:round;stroke-width:8px}
    </style>
  </defs>
  <path fill="#fff" stroke-width="0" d="M4 4h992v992H4z"/>
  <path fill="#de39c8" stroke-width="0" d="M992 8v984H8V8zm8-8H0v1000h1000z"/>
  <path d="M0 500h302.95m-2.94 3.65c-4.82-44.28 26.16-77.93 49.09-78.39 23.15-.47 53.8 31.14 49.96 76.17-3.6-42.92 22.79-74.69 45.16-76.17 23.67-1.57 56.47 29.88 54.02 76.94-4.16-43.36 22.97-75.55 45.81-76.94 23.95-1.45 56.76 30.15 54.02 76.94-4.42-44.55 24.85-76.94 47.77-76.94 25.27 0 52.36 32.57 50.34 78.25" class="c"/>
  <path fill="url(#b)" stroke-width="0" d="M299.67 549.71h400.65v50.08H299.67z"/>
  <path d="M699 500h300.31" class="c"/>
</svg>
