<svg xmlns="http://www.w3.org/2000/svg" viewBox="0 0 1000 1000">
  <path fill="#fff" d="M4 4h992v992H4z"/>
  <path fill="#de39c8" d="M992 8v984H8V8zm8-8H0v1000h1000z"/>
  <path fill="none" stroke="#000" stroke-linejoin="round" stroke-width="7.99" d="M374.45 250.1c44.28-6.09 77.93 33.05 78.39 62.03.47 29.26-31.14 67.99-76.17 63.13 42.92-4.55 74.69 28.8 76.17 57.06 1.57 29.91-29.88 71.35-76.94 68.26 43.36-5.26 75.55 29.03 76.94 57.89 1.45 30.26-30.15 71.72-76.94 68.26 44.55-5.59 76.94 31.4 76.94 60.36 0 31.93-32.57 66.16-78.25 63.61m246.85-500.6c-44.28-6.09-77.93 33.05-78.39 62.03-.47 29.26 31.14 67.99 76.17 63.13-42.92-4.55-74.69 28.8-76.17 57.06-1.57 29.91 29.88 71.35 76.94 68.26-43.36-5.26-75.55 29.03-76.94 57.89-1.45 30.26 30.15 71.72 76.94 68.26-44.55-5.59-76.94 31.4-76.94 60.36 0 31.93 32.57 66.16 78.25 63.61"/>
  <path fill="none" stroke="#000" stroke-linejoin="round" stroke-width="8" d="M8.03 250h358.76M8.03 750h358.76m261.87-500h366.13M628.66 750h366.13"/>
</svg>
